<?xml version="1.0" encoding="utf-8"?>
<!-- Generator: Adobe Illustrator 17.1.0, SVG Export Plug-In . SVG Version: 6.00 Build 0)  -->
<!DOCTYPE svg PUBLIC "-//W3C//DTD SVG 1.1//EN" "http://www.w3.org/Graphics/SVG/1.1/DTD/svg11.dtd">
<svg version="1.1" id="Layer_1" xmlns="http://www.w3.org/2000/svg" xmlns:xlink="http://www.w3.org/1999/xlink" x="0px" y="0px"
	 viewBox="0 0 195.6 195.6" enable-background="new 0 0 195.6 195.6" xml:space="preserve">
<g>
	<rect x="79.2" y="110.7" fill-rule="evenodd" clip-rule="evenodd" fill="#E6B783" width="37.2" height="67"/>
	<ellipse fill-rule="evenodd" clip-rule="evenodd" fill="#442211" cx="97.8" cy="72.5" rx="56.9" ry="54.3"/>
	<path fill-rule="evenodd" clip-rule="evenodd" fill="#FAD3A8" d="M99.7,40.9c25.1,0,44.8,13.6,41.7,46.2c-0.9,9.3,8.1,4.4,8.1,7.7
		c0,27.7-23.2,50.2-51.7,50.2c-28.6,0-51.7-22.5-51.7-50.2c6.1,8.9,7-2.4,6.8-7.6C50.6,44.8,73.4,40.9,99.7,40.9z"/>
	
		<path fill-rule="evenodd" clip-rule="evenodd" fill="none" stroke="#CA9255" stroke-width="3.8401" stroke-linecap="round" stroke-linejoin="round" stroke-miterlimit="22.9256" d="
		M106.3,100.8c-4.7,4.6-12.3,4.6-17,0"/>
	<path fill-rule="evenodd" clip-rule="evenodd" fill="#E28E66" d="M125.3,111.4c-14.8,22.6-40.1,22.6-54.9,0H125.3z"/>
	<path fill-rule="evenodd" clip-rule="evenodd" fill="#EEA27E" d="M114.2,123c-10.3,7.1-22.5,7.1-32.9,0
		C91.2,110.6,104.4,110.6,114.2,123z"/>
	<g>
		<g>
			<ellipse fill-rule="evenodd" clip-rule="evenodd" fill="#343434" cx="80.3" cy="81.9" rx="4.5" ry="7.5"/>
			<circle fill-rule="evenodd" clip-rule="evenodd" fill="#FFFFFF" cx="80.9" cy="78.2" r="2.6"/>
		</g>
		<g>
			<ellipse fill-rule="evenodd" clip-rule="evenodd" fill="#343434" cx="115.3" cy="81.9" rx="4.5" ry="7.5"/>
			<circle fill-rule="evenodd" clip-rule="evenodd" fill="#FFFFFF" cx="116" cy="78.2" r="2.6"/>
		</g>
	</g>
	<g>
		
			<path fill-rule="evenodd" clip-rule="evenodd" fill="none" stroke="#442211" stroke-width="3.8401" stroke-linecap="round" stroke-linejoin="round" stroke-miterlimit="22.9256" d="
			M70.8,71.7c1.7-5.1,7.6-8.5,12.7-7.4"/>
		
			<path fill-rule="evenodd" clip-rule="evenodd" fill="none" stroke="#442211" stroke-width="3.8401" stroke-linecap="round" stroke-linejoin="round" stroke-miterlimit="22.9256" d="
			M124.8,71.7c-1.7-5.1-7.6-8.5-12.7-7.4"/>
	</g>
	<path fill-rule="evenodd" clip-rule="evenodd" fill="#442211" d="M115.2,33.4c20,8,36.2,19.9,36.2,26.5s-16.2,5.5-36.2-2.6
		c-20-8-36.2-19.9-36.2-26.5C79,24.2,95.2,25.4,115.2,33.4z"/>
	<g>
		<path fill-rule="evenodd" clip-rule="evenodd" fill="#FAD3A8" d="M39.3,77.8c2.9-1.2,7.4,3.6,10.1,10.8c2.7,7.2,2.6,14-0.3,15.2
			c-2.9,1.2-7.4-3.6-10.1-10.8C36.4,85.8,36.5,79,39.3,77.8z"/>
		<path fill-rule="evenodd" clip-rule="evenodd" fill="#FAD3A8" d="M155.6,77.8c-3.7-1.2-8.6,3.6-11,10.8c-2.4,7.2-1.3,14,2.4,15.2
			c3.7,1.2,8.6-3.6,11-10.8C160.3,85.8,159.3,79,155.6,77.8z"/>
	</g>
	<path fill-rule="evenodd" clip-rule="evenodd" fill="#442211" d="M62.2,37.8C51,44.9,50.5,57,50.5,60.5c0,3.5,9,0.6,20.2-6.4
		C81.8,47,90.8,38.5,90.8,35C90.8,31.5,73.3,30.8,62.2,37.8z"/>
	<path fill-rule="evenodd" clip-rule="evenodd" fill="#FFFFFF" d="M109.9,111.4c-0.7,6.1-23.9,5.5-24.1,0H109.9z"/>
</g>
<rect x="79.2" y="110.7" fill-rule="evenodd" clip-rule="evenodd" fill="#E6B783" width="37.2" height="67"/>
<path fill-rule="evenodd" clip-rule="evenodd" fill="#442211" d="M141.1,36.6c8.8,9.6,13.6,22.1,13.6,35.9c0,30-25.5,54.3-56.9,54.3
	c-31.4,0-55.8-24.3-56.9-54.3c-1-25.9,20.6-54.6,47.2-53.5C100.5,9.4,127.8,22.2,141.1,36.6z"/>
<path fill-rule="evenodd" clip-rule="evenodd" fill="#FAD3A8" d="M99.7,40.9c25.1,0,44.8,13.6,41.7,46.2c-0.9,9.3,8.1,4.4,8.1,7.7
	c0,27.7-23.2,50.2-51.7,50.2c-28.6,0-51.7-22.5-51.7-50.2c6.1,8.9,7-2.4,6.8-7.6C50.6,44.8,73.4,40.9,99.7,40.9z"/>
<path fill-rule="evenodd" clip-rule="evenodd" fill="#E28E66" d="M125.3,111.4c-14.8,22.6-40.1,22.6-54.9,0H125.3z"/>
<path fill-rule="evenodd" clip-rule="evenodd" fill="#EEA27E" d="M114.2,123c-10.3,7.1-22.5,7.1-32.9,0
	C91.2,110.6,104.4,110.6,114.2,123z"/>
<g>
	<g>
		<ellipse fill-rule="evenodd" clip-rule="evenodd" fill="#343434" cx="80.3" cy="81.9" rx="4.5" ry="7.5"/>
		<circle fill-rule="evenodd" clip-rule="evenodd" fill="#FFFFFF" cx="80.9" cy="78.2" r="2.6"/>
	</g>
	<g>
		<ellipse fill-rule="evenodd" clip-rule="evenodd" fill="#343434" cx="115.3" cy="81.9" rx="4.5" ry="7.5"/>
		<circle fill-rule="evenodd" clip-rule="evenodd" fill="#FFFFFF" cx="116" cy="78.2" r="2.6"/>
	</g>
</g>
<path fill-rule="evenodd" clip-rule="evenodd" fill="#442211" d="M115.2,33.4c20,8,36.2,19.9,36.2,26.5s-16.2,5.5-36.2-2.6
	c-20-8-36.2-19.9-36.2-26.5C79,24.2,95.2,25.4,115.2,33.4z"/>
<g>
	<path fill-rule="evenodd" clip-rule="evenodd" fill="#FAD3A8" d="M39.3,77.8c2.9-1.2,7.4,3.6,10.1,10.8c2.7,7.2,2.6,14-0.3,15.2
		c-2.9,1.2-7.4-3.6-10.1-10.8C36.4,85.8,36.5,79,39.3,77.8z"/>
	<path fill-rule="evenodd" clip-rule="evenodd" fill="#FAD3A8" d="M155.6,77.8c-3.7-1.2-8.6,3.6-11,10.8c-2.4,7.2-1.3,14,2.4,15.2
		c3.7,1.2,8.6-3.6,11-10.8C160.3,85.8,159.3,79,155.6,77.8z"/>
</g>
<path fill-rule="evenodd" clip-rule="evenodd" fill="#442211" d="M62.2,37.8C51,44.9,50.5,57,50.5,60.5c0,3.5,9,0.6,20.2-6.4
	C81.8,47,90.8,38.5,90.8,35C90.8,31.5,73.3,30.8,62.2,37.8z"/>
<path fill-rule="evenodd" clip-rule="evenodd" fill="#FFFFFF" d="M109.9,111.4c-0.7,6.1-23.9,5.5-24.1,0H109.9z"/>
<path fill-rule="evenodd" clip-rule="evenodd" fill="#676767" d="M153.4,171.2c-9.6-7.8-27.5-14-36.9-17.5
	c-1.7,6.6-9.5,7.6-18.7,7.6c-9.2,0-16.9-1-18.7-7.6c-9.4,3.5-27.3,9.7-36.9,17.5c15.8,10.9,34.9,17.3,55.6,17.3
	C118.5,188.6,137.6,182.2,153.4,171.2z"/>
<path fill="#C79C6D" d="M103.8,101.7c1.5-1,3.7,0,2.2,1c-4.5,3.1-11.8,3.1-16.4,0c-1.5-1,0.5-1.8,2.2-1
	C95.3,103.4,100.6,103.3,103.8,101.7z"/>
<g>
	<path fill="#442211" d="M69.4,67.6c-2.4,1.6-4.9-0.1-2.5-1.7c6-4,16-3.9,21.7,0.2c2.3,1.7-1,4.4-3.3,2.7
		C81.3,65.9,73.5,64.8,69.4,67.6z"/>
	<path fill="#442211" d="M126.2,67.6c2.4,1.6,4.9-0.1,2.5-1.7c-6-4-16-3.9-21.7,0.2c-2.3,1.7,1,4.4,3.3,2.7
		C114.2,65.9,122.1,64.8,126.2,67.6z"/>
</g>
<path fill-rule="evenodd" clip-rule="evenodd" fill="#E6E6E6" d="M98.4,161.1l-18.7,13.6c-5.6-5.2-7.3-11.3-9.3-17.4
	c4.8-3,7.5-4.4,8.8-9.1c-0.7,16.4,38.7,18.1,37-0.1c1.3,4.9,4.2,6.1,9.1,9.2c-2,6-4,12.2-9.5,17.3L98.4,161.1z"/>
</svg>
