<?xml version="1.0" encoding="utf-8"?>
<!-- Generator: Adobe Illustrator 17.1.0, SVG Export Plug-In . SVG Version: 6.00 Build 0)  -->
<!DOCTYPE svg PUBLIC "-//W3C//DTD SVG 1.1//EN" "http://www.w3.org/Graphics/SVG/1.1/DTD/svg11.dtd">
<svg version="1.1" xmlns="http://www.w3.org/2000/svg" xmlns:xlink="http://www.w3.org/1999/xlink" x="0px" y="0px"
	 viewBox="0 0 799.9 799.9" enable-background="new 0 0 799.9 799.9" xml:space="preserve">
<g id="Background">
</g>
<g id="Objects">
</g>
<g id="Objects_1_">
	<g>
		<g>
			<path fill-rule="evenodd" clip-rule="evenodd" fill="#FFFFFF" d="M164.9,252.1c54.1,0,98.1-44.1,98.1-98.1
				c0-54.1-44.1-98.1-98.1-98.1c-54.1,0-98.1,44.1-98.1,98.1C66.8,208,110.9,252.1,164.9,252.1z"/>
			<rect x="146.3" y="173.9" fill-rule="evenodd" clip-rule="evenodd" fill="#E6B683" width="37.3" height="67.2"/>
			<ellipse fill-rule="evenodd" clip-rule="evenodd" fill="#612B05" cx="164.9" cy="139.4" rx="57.1" ry="58.3"/>
			<path fill-rule="evenodd" clip-rule="evenodd" fill="#FAD3A8" d="M166.8,103.9c25.2,0,45,13.7,41.8,46.4
				c-0.9,9.3,8.2,4.4,8.2,7.8c0,27.8-23.2,50.3-51.9,50.3c-28.7,0-51.9-22.5-51.9-50.3c6.1,8.9,7.1-2.4,6.8-7.6
				C117.6,107.8,140.4,103.9,166.8,103.9z"/>
			<path fill-rule="evenodd" clip-rule="evenodd" fill="#E28D66" d="M188.3,178.2c-12.6,17.9-34.1,17.9-46.7,0H188.3z"/>
			<path fill-rule="evenodd" clip-rule="evenodd" fill="#EDA17D" d="M178.9,187.4c-8.8,5.6-19.2,5.6-28,0
				C159.3,177.6,170.5,177.6,178.9,187.4z"/>
			<g>
				<g>
					<ellipse fill-rule="evenodd" clip-rule="evenodd" fill="#333333" cx="147.4" cy="145" rx="4.5" ry="7.5"/>
					<circle fill-rule="evenodd" clip-rule="evenodd" fill="#FFFFFF" cx="148" cy="141.3" r="2.6"/>
				</g>
				<g>
					<ellipse fill-rule="evenodd" clip-rule="evenodd" fill="#333333" cx="182.5" cy="145" rx="4.5" ry="7.5"/>
					<circle fill-rule="evenodd" clip-rule="evenodd" fill="#FFFFFF" cx="183.2" cy="141.3" r="2.6"/>
				</g>
			</g>
			<path fill-rule="evenodd" clip-rule="evenodd" fill="#612B05" d="M182.4,96.3c20.1,8.1,36.4,20,36.4,26.6
				c0,6.6-16.3,5.5-36.4-2.6c-20.1-8.1-36.4-20-36.4-26.6C146,87.1,162.3,88.3,182.4,96.3z"/>
			<g>
				
					<ellipse transform="matrix(0.3135 -0.9496 0.9496 0.3135 3.8578 313.2579)" fill-rule="evenodd" clip-rule="evenodd" fill="#FAD3A8" cx="218.6" cy="154" rx="13.8" ry="7.1"/>
				
					<ellipse transform="matrix(-0.3135 -0.9496 0.9496 -0.3135 1.4374 308.9615)" fill-rule="evenodd" clip-rule="evenodd" fill="#FAD3A8" cx="112.4" cy="154" rx="13.8" ry="7.1"/>
			</g>
			<path fill-rule="evenodd" clip-rule="evenodd" fill="#612B05" d="M129.2,100.8c-11.2,7.1-11.7,19.2-11.7,22.8
				c0,3.5,9.1,0.6,20.2-6.4c11.2-7.1,20.2-15.7,20.2-19.2C157.9,94.4,140.4,93.7,129.2,100.8z"/>
			<path fill-rule="evenodd" clip-rule="evenodd" fill="#FFFFFF" d="M175.2,178.2c-0.6,4.8-20.4,4.3-20.5,0H175.2z"/>
			<path fill-rule="evenodd" clip-rule="evenodd" fill="#E85F3B" d="M220.7,234.7c-9.7-7.9-27.6-14-37-17.6
				c-1.8,6.6-9.5,11.6-18.8,11.6c-9.3,0-17-5-18.8-11.6c-9.5,3.6-27.4,9.7-37,17.6c15.8,11,35.1,17.4,55.8,17.4
				C185.7,252.1,204.9,245.6,220.7,234.7z"/>
			<path fill="#471E00" d="M192.9,138.2c1.1,2.3-2,2.6-3.1,0.4c-1.9-3.9-7.6-4.8-11.6-3.4c-2.4,0.9-3.7-2.8-1.3-3.6
				C182.8,129.5,190.1,132.5,192.9,138.2z"/>
			<path fill="#C79C6D" d="M170.9,167.5c1.5-1,3.7,0,2.2,1c-4.5,3.1-11.9,3.1-16.4,0c-1.5-1,0.5-1.8,2.2-1
				C162.4,169.2,167.8,169.1,170.9,167.5z"/>
			<path fill-rule="evenodd" clip-rule="evenodd" fill="#612B05" d="M204.2,130.3c-13.7,4.7-55.3-7-59.3-44.9
				C154.7,113.5,186.7,125.3,204.2,130.3z"/>
			<path fill="#471E00" d="M137.4,130.3c-1.5,2,1.4,3,2.9,0.9c2.6-3.5,8.3-3.4,12-1.2c2.2,1.3,4.1-2,1.9-3.3
				C149,123.5,141.2,125.2,137.4,130.3z"/>
			<path fill="#612B05" d="M165,172.1l0.2,0c13.2,0,18.3-5.7,26.4-0.5c17.5,11.1,18-34.8,17.7-40.7c-0.5-12.6,12.3-2.2,7.4,3.6
				c-4.9,5.9-5.4,14.5-3.6,35.4c1.8,20.9-29.7,40.7-47,40.7c-0.4,0-0.7,0-1.1,0v-16.8c3.4,0.2,5.7,3.6,9.3,2.8
				c12.1-2.6,17.9-12.7,17.9-17.8c0-6.9-13.3-3-27.1-2.9l-0.1,0V172.1z M137.4,172.3c7.3-5.7,20.2-0.3,27.6-0.2v3.7
				c-13.1,0.1-26.6-3.8-27.2,2.1c-0.5,5.1,4.3,15.8,17.1,18.5c3.8,0.8,6.1-2.8,9.7-2.8c0.1,0,0.3,0,0.4,0v16.8c-0.1,0-0.3,0-0.4,0
				c-0.5,0-1,0-1.5,0c-17.3,0-48.8-19.8-47-40.7c1.8-20.9,1.3-29.5-3.6-35.4c-4.9-5.9,8-16.2,7.4-3.6
				C119.1,146.2,123.1,179.1,137.4,172.3z"/>
		</g>
		<g>
			<path fill-rule="evenodd" clip-rule="evenodd" fill="#FFFFFF" d="M400,483.8c54.1,0,98.1-44.1,98.1-98.1
				c0-54.1-44.1-98.1-98.1-98.1c-54.1,0-98.1,44.1-98.1,98.1C301.8,439.7,345.9,483.8,400,483.8z"/>
			<rect x="381.3" y="405.6" fill-rule="evenodd" clip-rule="evenodd" fill="#E6B683" width="37.3" height="67.2"/>
			<path fill-rule="evenodd" clip-rule="evenodd" fill="#612B05" d="M400,312.8c48.7,0,55.4,24.4,55.4,54.5
				c0,30.1-24.8,54.5-55.4,54.5c-30.6,0-55.4-24.4-55.4-54.5C344.6,337.2,351.2,312.8,400,312.8z"/>
			<path fill-rule="evenodd" clip-rule="evenodd" fill="#FAD3A8" d="M401.9,335.6c25.2,0,45,13.7,41.8,46.4
				c-0.9,9.3,8.2,4.4,8.2,7.8c0,27.8-23.2,50.3-51.9,50.3c-28.7,0-51.9-22.5-51.9-50.3c6.1,8.9,7.1-2.4,6.8-7.6
				C352.6,339.5,375.5,335.6,401.9,335.6z"/>
			
				<path fill-rule="evenodd" clip-rule="evenodd" fill="none" stroke="#C99154" stroke-width="3.8401" stroke-linecap="round" stroke-linejoin="round" stroke-miterlimit="22.9256" d="
				M408.5,395.7c-4.7,4.6-12.3,4.6-17,0"/>
			<path fill-rule="evenodd" clip-rule="evenodd" fill="#E28D66" d="M427.5,406.3c-14.9,22.6-40.2,22.6-55.1,0H427.5z"/>
			<path fill-rule="evenodd" clip-rule="evenodd" fill="#EDA17D" d="M416.5,417.9c-10.4,7.2-22.6,7.2-33,0
				C393.4,405.6,406.6,405.6,416.5,417.9z"/>
			<g>
				<g>
					<ellipse fill-rule="evenodd" clip-rule="evenodd" fill="#333333" cx="382.4" cy="376.7" rx="4.5" ry="7.5"/>
					<circle fill-rule="evenodd" clip-rule="evenodd" fill="#FFFFFF" cx="383" cy="373" r="2.6"/>
				</g>
				<g>
					<ellipse fill-rule="evenodd" clip-rule="evenodd" fill="#333333" cx="417.5" cy="376.7" rx="4.5" ry="7.5"/>
					<circle fill-rule="evenodd" clip-rule="evenodd" fill="#FFFFFF" cx="418.2" cy="373" r="2.6"/>
				</g>
			</g>
			<g>
				
					<path fill-rule="evenodd" clip-rule="evenodd" fill="none" stroke="#471E00" stroke-width="3.8401" stroke-linecap="round" stroke-linejoin="round" stroke-miterlimit="22.9256" d="
					M372.9,366.5c1.7-5.2,7.7-8.5,12.7-7.4"/>
				
					<path fill-rule="evenodd" clip-rule="evenodd" fill="none" stroke="#471E00" stroke-width="3.8401" stroke-linecap="round" stroke-linejoin="round" stroke-miterlimit="22.9256" d="
					M427,366.5c-1.7-5.2-7.7-8.5-12.7-7.4"/>
			</g>
			<g>
				<path fill-rule="evenodd" clip-rule="evenodd" fill="#FAD3A8" d="M341.3,372.6c2.9-1.2,7.4,3.6,10.1,10.9
					c2.7,7.2,2.6,14.1-0.3,15.3c-2.9,1.2-7.4-3.6-10.1-10.9C338.3,380.7,338.4,373.8,341.3,372.6z"/>
				<path fill-rule="evenodd" clip-rule="evenodd" fill="#FAD3A8" d="M457.9,372.6c-3.7-1.2-8.7,3.6-11.1,10.9
					c-2.4,7.2-1.3,14.1,2.4,15.3c3.7,1.2,8.7-3.6,11.1-10.9C462.7,380.7,461.6,373.8,457.9,372.6z"/>
			</g>
			<path fill-rule="evenodd" clip-rule="evenodd" fill="#471E00" d="M364.2,332.5c-11.2,7.1-11.7,19.2-11.7,22.8
				c0,3.5,9.1,0.6,20.2-6.4c11.2-7.1,20.2-15.7,20.2-19.2C393,326.1,375.4,325.4,364.2,332.5z"/>
			<path fill-rule="evenodd" clip-rule="evenodd" fill="#FFFFFF" d="M412.1,406.3c-0.7,6.1-24,5.5-24.2,0H412.1z"/>
			<rect x="381.3" y="405.6" fill-rule="evenodd" clip-rule="evenodd" fill="#E6B683" width="37.3" height="67.2"/>
			<ellipse fill-rule="evenodd" clip-rule="evenodd" fill="#612B05" cx="400" cy="367.3" rx="53" ry="54.5"/>
			<path fill-rule="evenodd" clip-rule="evenodd" fill="#FAD3A8" d="M401.9,335.6c7.3,0,15.3-2.1,21.3,0.1
				c15.5,5.8,19.6,27.9,17.2,51.4c-0.5,5.3,3.4,6.3,5.6,1.1c1.2-2.8,7.5,0,7.5,1.5c0,27.8-24,50.3-53.7,50.3
				c-29.6,0-53.7-22.5-53.7-50.3c1.1,1.5,6.2-0.2,6.6,0.8c3.1,7.8,5.5,2.4,5.3-2c-1.6-29.2,4.9-49.5,20.4-53.5
				C385.8,333.2,393.3,335.6,401.9,335.6z"/>
			<g>
				<g>
					<ellipse fill-rule="evenodd" clip-rule="evenodd" fill="#333333" cx="382.4" cy="379.1" rx="4.5" ry="7.5"/>
					<circle fill-rule="evenodd" clip-rule="evenodd" fill="#FFFFFF" cx="383" cy="375.3" r="2.6"/>
				</g>
				<g>
					<ellipse fill-rule="evenodd" clip-rule="evenodd" fill="#333333" cx="417.5" cy="379.1" rx="4.5" ry="7.5"/>
					<circle fill-rule="evenodd" clip-rule="evenodd" fill="#FFFFFF" cx="418.2" cy="375.3" r="2.6"/>
				</g>
			</g>
			<g>
				<path fill-rule="evenodd" clip-rule="evenodd" fill="#FAD3A8" d="M341.3,372.6c2.9-1.2,7.4,3.6,10.1,10.9
					c2.7,7.2,2.6,14.1-0.3,15.3c-2.9,1.2-7.4-3.6-10.1-10.9C338.3,380.7,338.4,373.8,341.3,372.6z"/>
				<path fill-rule="evenodd" clip-rule="evenodd" fill="#FAD3A8" d="M457.9,372.6c-3.7-1.2-8.7,3.6-11.1,10.9
					c-2.4,7.2-1.3,14.1,2.4,15.3c3.7,1.2,8.7-3.6,11.1-10.9C462.7,380.7,461.6,373.8,457.9,372.6z"/>
			</g>
			<path fill-rule="evenodd" clip-rule="evenodd" fill="#7991BF" d="M455.8,466.4c-9.7-7.9-27.6-14-37-17.6
				c-1.8,6.6-9.5,11.6-18.8,11.6c-9.3,0-17-5-18.8-11.6c-9.5,3.6-27.4,9.7-37,17.6c15.8,11,35.1,17.4,55.8,17.4
				C420.7,483.8,439.9,477.4,455.8,466.4z"/>
			<path fill-rule="evenodd" clip-rule="evenodd" fill="#C6D1E6" d="M392.3,483.5c2.7-6.4,4.6-8.1-0.9-13.5
				c-7-6.8,0.2-16.1,8.5-16.1c8.3,0,15.6,9,8.6,15.8c-5.6,5.4-3.7,7.3-1,13.8c-2.5,0.2-5,0.3-7.5,0.3
				C397.4,483.8,394.9,483.7,392.3,483.5z"/>
			<path fill-rule="evenodd" clip-rule="evenodd" fill="#536C9C" d="M400,454.2l-18.1,19.7c-5.6-6.6-7.8-13.6-9.9-21.3
				c5.6-3.2,8-6.7,9.4-12.7c-0.7,16.3,38.8,18.5,37.1-0.1c1.3,6.3,3.1,10.7,9.5,12.7c-2,7.6-4.3,14.9-9.8,21.4L400,454.2z"/>
			<path fill-rule="evenodd" clip-rule="evenodd" fill="#7991BF" d="M400.6,452.9l-18.7,17.4c-5.6-5.2-7.3-11.8-9.4-17.9
				c4.8-3,7.5-7.6,8.9-12.4c-0.7,16.5,38.8,18.1,37.1-0.1c1.3,5,4.2,9.4,9.2,12.5c-2,6-4,12.7-9.5,17.9L400.6,452.9z"/>
			<path fill="#C79C6D" d="M405.9,403.6c1.5-1,3.7,0,2.2,1c-4.5,3.1-11.9,3.1-16.4,0c-1.5-1,0.5-1.8,2.2-1
				C397.4,405.2,402.8,405.2,405.9,403.6z"/>
			<path fill-rule="evenodd" clip-rule="evenodd" fill="#9DADCC" d="M405.6,473.2c-2.1-1.7-8.9-1.3-11.3,0.3c0.3,0.5,0.5,1,0.6,1.5
				c0.5-0.3,1.1-0.6,1.3-0.5c0.5,0.3,1.4,3.8,2.1,3.9c1.4,0.1,0.4-4.9,1.8-4.7c1.4,0.2,0.7,5.6,2.4,5.7c0.8,0.1,0.5-3.7,1.7-5
				c0.1-0.1,0.5-0.1,0.9,0C405.2,474.1,405.4,473.7,405.6,473.2z"/>
			<g>
				<path fill="#612B05" d="M371.4,363.6c-2.4,1.6-4.9-0.1-2.5-1.7c6-4,16.1-3.9,21.8,0.2c2.3,1.7-1,4.4-3.3,2.7
					C383.5,362,375.6,360.9,371.4,363.6z"/>
				<path fill="#612B05" d="M428.5,363.6c2.4,1.6,4.9-0.1,2.5-1.7c-6-4-16.1-3.9-21.8,0.2c-2.3,1.7,1,4.4,3.3,2.7
					C416.5,362,424.3,360.9,428.5,363.6z"/>
			</g>
			<g>
				<path fill-rule="evenodd" clip-rule="evenodd" fill="#DBAF81" d="M422.7,415c-1.6,6.4-46.2,5.8-45.4,0
					C392.4,418.3,407.5,418.3,422.7,415z"/>
				<path fill-rule="evenodd" clip-rule="evenodd" fill="#DBAF81" d="M409.9,421.9c-0.7,4.4-20.1,3.9-19.8,0
					C396.7,424.1,403.3,424.1,409.9,421.9z"/>
			</g>
		</g>
		<g>
			<path fill-rule="evenodd" clip-rule="evenodd" fill="#FFFFFF" d="M635,715.5c54.1,0,98.1-44.1,98.1-98.1
				c0-54.1-44.1-98.1-98.1-98.1c-54.1,0-98.1,44.1-98.1,98.1C536.8,671.4,580.9,715.5,635,715.5z"/>
			<rect x="616.3" y="637.3" fill-rule="evenodd" clip-rule="evenodd" fill="#E6B683" width="37.3" height="67.2"/>
			<path fill-rule="evenodd" clip-rule="evenodd" fill="#471E00" d="M679.6,564.9c7.8,9.3,12.5,21.2,12.5,34
				c0,30.1-25.6,54.5-57.1,54.5c-31.5,0-57.1-24.4-57.1-54.5c0-27.1,21.2-52.8,48.1-52.4C646,539.1,666.4,549.3,679.6,564.9z"/>
			<path fill-rule="evenodd" clip-rule="evenodd" fill="#FAD3A8" d="M634.6,566.5c25.2,0,47.2,14.4,44.1,47.1
				c-0.9,9.3,8.2,4.4,8.2,7.8c0,27.8-23.2,50.3-51.9,50.3c-28.7,0-51.9-22.5-51.9-50.3c6.1,8.9,6.8-2.4,6.8-7.6
				C589.6,583,608.2,566.5,634.6,566.5z"/>
			<g>
				<g>
					<ellipse fill-rule="evenodd" clip-rule="evenodd" fill="#333333" cx="617.4" cy="608.5" rx="4.5" ry="7.5"/>
					<circle fill-rule="evenodd" clip-rule="evenodd" fill="#FFFFFF" cx="618.1" cy="604.7" r="2.6"/>
				</g>
				<g>
					<ellipse fill-rule="evenodd" clip-rule="evenodd" fill="#333333" cx="652.6" cy="608.5" rx="4.5" ry="7.5"/>
					<circle fill-rule="evenodd" clip-rule="evenodd" fill="#FFFFFF" cx="653.2" cy="604.7" r="2.6"/>
				</g>
			</g>
			<path fill-rule="evenodd" clip-rule="evenodd" fill="#471E00" d="M652.5,559.8c20.1,8.1,36.4,20,36.4,26.6s-16.3,5.5-36.4-2.6
				s-36.4-20-36.4-26.6C616.1,550.6,632.4,551.7,652.5,559.8z"/>
			<g>
				<path fill-rule="evenodd" clip-rule="evenodd" fill="#FAD3A8" d="M576.3,604.3c2.9-1.2,7.4,3.6,10.1,10.9
					c2.7,7.2,2.6,14.1-0.3,15.3c-2.9,1.2-7.4-3.6-10.1-10.9C573.3,612.4,573.5,605.5,576.3,604.3z"/>
				
					<ellipse transform="matrix(0.3134 -0.9496 0.9496 0.3134 -113.4802 1077.8029)" fill-rule="evenodd" clip-rule="evenodd" fill="#FAD3A8" cx="688.6" cy="617.4" rx="13.8" ry="7.1"/>
			</g>
			<path fill-rule="evenodd" clip-rule="evenodd" fill="#00A99E" d="M690.8,698.1c-9.7-7.9-27.6-14-37-17.6
				c-1.8,6.6-9.5,24.6-18.8,24.6c-9.3,0-17-18-18.8-24.6c-9.5,3.6-27.4,9.7-37,17.6c15.8,11,35.1,17.4,55.8,17.4
				C655.7,715.5,674.9,709.1,690.8,698.1z"/>
			<path fill="#C79C6D" d="M641,628.3c1.5-1,3.7,0,2.2,1c-4.5,3.1-11.9,3.1-16.4,0c-1.5-1,0.5-1.8,2.2-1
				C632.4,630,637.8,629.9,641,628.3z"/>
			<path fill="#471E00" d="M634.1,681.1c-13.3,0.4-23.9-6.1-31.7-13.3c-11.2-10.3-23.1-30.3-16.4-62c4.7-22,3.4-2.5,3.9,7.7
				c0.4,7,1.3,35.4,17.7,47.5c4.1,3.1,12.2,7.1,18.4,7.3c2.7-0.2,4.8-2.5,7.7-2.5c0.2,0,0.3,0,0.5,0c0.1,0,0.2,0,0.3,0
				c0.1,0,0.2,0,0.3,0c0.2,0,0.3,0,0.5,0c2.9,0,5,2.3,7.7,2.5c6.2-0.2,14.2-4.3,18.3-7.3c16.3-12.1,17.3-40.5,17.7-47.5
				c0.6-10.2,2.3-30.5,5.2-8.1c4.8,36.9-6.4,52.1-17.7,62.4c-7.8,7.2-18.5,13.7-31.7,13.3l-0.3,0L634.1,681.1z"/>
			<g>
				<path fill-rule="evenodd" clip-rule="evenodd" fill="#DBAF81" d="M657.7,642.7c-1.6,6.4-46.2,5.8-45.4,0
					C627.4,645.9,642.6,646,657.7,642.7z"/>
				<path fill-rule="evenodd" clip-rule="evenodd" fill="#DBAF81" d="M644.9,649.6c-0.7,4.4-20.1,3.9-19.8,0
					C631.7,651.8,638.3,651.8,644.9,649.6z"/>
			</g>
			<g>
				<path fill="#471E00" d="M606.5,603.2c-2.4,1.6-4.9-0.1-2.5-1.7c6-4,16.1-3.9,21.8,0.2c2.3,1.7-1,4.4-3.3,2.7
					C618.5,601.5,610.6,600.4,606.5,603.2z"/>
				<path fill="#471E00" d="M663.5,603.2c2.4,1.6,4.9-0.1,2.5-1.7c-6-4-16.1-3.9-21.8,0.2c-2.3,1.7,1,4.4,3.3,2.7
					C651.5,601.5,659.4,600.4,663.5,603.2z"/>
			</g>
		</g>
		<g>
			<path fill-rule="evenodd" clip-rule="evenodd" fill="#FFFFFF" d="M400,252.1c54.1,0,98.1-44.1,98.1-98.1
				c0-54.1-44.1-98.1-98.1-98.1c-54.1,0-98.1,44.1-98.1,98.1C301.8,208,345.9,252.1,400,252.1z"/>
			<rect x="381.3" y="173.9" fill-rule="evenodd" clip-rule="evenodd" fill="#E6B683" width="37.3" height="67.2"/>
			<path fill-rule="evenodd" clip-rule="evenodd" fill="#E85F3B" d="M400.4,80.8c31.3-7.2,62.3,29.6,62.3,60.3
				c0,30.8-29.6,48.9-62.7,48.9c-33.1,0-62-17.5-62-48.2C337.9,111,365.1,74.5,400.4,80.8z"/>
			<path fill-rule="evenodd" clip-rule="evenodd" fill="#FAD3A8" d="M401.9,103.9c25.2,0,45,13.7,41.8,46.4
				c-0.9,9.3,8.2,4.4,8.2,7.8c0,27.8-23.2,50.3-51.9,50.3c-28.7,0-51.9-22.5-51.9-50.3c6.1,8.9,7.1-2.4,6.8-7.6
				C352.6,107.8,375.5,103.9,401.9,103.9z"/>
			
				<path fill-rule="evenodd" clip-rule="evenodd" fill="none" stroke="#C99154" stroke-width="3.8401" stroke-linecap="round" stroke-linejoin="round" stroke-miterlimit="22.9256" d="
				M408.5,164c-4.7,4.6-12.3,4.6-17,0"/>
			<path fill-rule="evenodd" clip-rule="evenodd" fill="#E28D66" d="M427.5,174.6c-14.9,22.6-40.2,22.6-55.1,0H427.5z"/>
			<path fill-rule="evenodd" clip-rule="evenodd" fill="#EDA17D" d="M416.5,186.2c-10.4,7.2-22.6,7.2-33,0
				C393.4,173.9,406.6,173.9,416.5,186.2z"/>
			<g>
				<g>
					<ellipse fill-rule="evenodd" clip-rule="evenodd" fill="#333333" cx="382.4" cy="145" rx="4.5" ry="7.5"/>
					<circle fill-rule="evenodd" clip-rule="evenodd" fill="#FFFFFF" cx="383" cy="141.3" r="2.6"/>
				</g>
				<g>
					<ellipse fill-rule="evenodd" clip-rule="evenodd" fill="#333333" cx="417.5" cy="145" rx="4.5" ry="7.5"/>
					<circle fill-rule="evenodd" clip-rule="evenodd" fill="#FFFFFF" cx="418.2" cy="141.3" r="2.6"/>
				</g>
			</g>
			<g>
				<path fill-rule="evenodd" clip-rule="evenodd" fill="#FAD3A8" d="M341.3,140.9c2.9-1.2,7.4,3.6,10.1,10.9
					c2.7,7.2,2.6,14.1-0.3,15.3c-2.9,1.2-7.4-3.6-10.1-10.9C338.3,149,338.4,142.1,341.3,140.9z"/>
				<path fill-rule="evenodd" clip-rule="evenodd" fill="#FAD3A8" d="M457.9,140.9c-3.7-1.2-8.7,3.6-11.1,10.9
					c-2.4,7.2-1.3,14.1,2.4,15.3c3.7,1.2,8.7-3.6,11.1-10.9C462.7,149,461.6,142.1,457.9,140.9z"/>
			</g>
			<path fill-rule="evenodd" clip-rule="evenodd" fill="#FFFFFF" d="M412.1,174.6c-0.7,6.1-24,5.5-24.2,0H412.1z"/>
			<path fill-rule="evenodd" clip-rule="evenodd" fill="#E85F3B" d="M400,81.1c31.5,0,59.4,17.7,63.8,63.5c4.4,45.8,3.7,97-62.8,97
				c-66.4,0-67.7-46-64-93.7C340.8,100.2,368.4,81.1,400,81.1z"/>
			<rect x="383.8" y="173.9" fill-rule="evenodd" clip-rule="evenodd" fill="#E6B683" width="32.4" height="67.2"/>
			<path fill-rule="evenodd" clip-rule="evenodd" fill="#FAD3A8" d="M400.9,108.7c27.8-11.8,38.5,19.4,41.3,42.6
				c1.6,13.8,5.6,4.4,5.6,7.8c0,27.8-34.4,49.3-47.9,49.3c-13.5,0-48.4-22.5-48.4-50.3c5.7,8.9,5.6-2.4,6.3-7.6
				C362.1,120.8,372.9,99,400.9,108.7z"/>
			<path fill-rule="evenodd" clip-rule="evenodd" fill="#E28D66" d="M413.8,175.9c-7.5,17.5-20.2,17.6-27.7,0
				c6.1-4,12.4,1.1,14.1,1.1C402,177,407.2,171.6,413.8,175.9z"/>
			<g>
				<g>
					<ellipse fill-rule="evenodd" clip-rule="evenodd" fill="#333333" cx="382.4" cy="145" rx="4.5" ry="7.5"/>
					<circle fill-rule="evenodd" clip-rule="evenodd" fill="#FFFFFF" cx="383" cy="141.3" r="2.6"/>
				</g>
				<g>
					<ellipse fill-rule="evenodd" clip-rule="evenodd" fill="#333333" cx="417.5" cy="145" rx="4.5" ry="7.5"/>
					<circle fill-rule="evenodd" clip-rule="evenodd" fill="#FFFFFF" cx="418.2" cy="141.3" r="2.6"/>
				</g>
			</g>
			<g>
				<path fill="#E85F3B" d="M428.4,129.3c-3.5-0.2-9.6-3.1-14.9,2.1c-1.8,1.6-3.9-0.6-1.9-2.2C419.3,122.8,433.8,129.6,428.4,129.3z
					"/>
				<path fill="#E85F3B" d="M371.6,129.3c3.5-0.2,9.6-3.1,14.9,2.1c1.8,1.6,3.9-0.6,1.9-2.2C380.6,122.8,366.1,129.6,371.6,129.3z"
					/>
			</g>
			<path fill-rule="evenodd" clip-rule="evenodd" fill="#00A99E" d="M455.8,234.7c-9.7-7.9-27.6-14-37-17.6
				c-1.8,6.6-9.5,11.6-18.8,11.6c-9.3,0-17-5-18.8-11.6c-9.5,3.6-27.4,9.7-37,17.6c15.8,11,35.1,17.4,55.8,17.4
				C420.7,252.1,439.9,245.6,455.8,234.7z"/>
			<g>
				<path fill-rule="evenodd" clip-rule="evenodd" fill="#3CD9CF" d="M400,227.7c-8.3,0-14.7-4.8-16.2-12.1
					c-3.4,1.6-8.5,2.8-13.3,5.3c-0.1,0.4-0.1,0.8-0.1,1.3c0,6.8,6.6,13.5,14.8,15.1C393.3,238.8,400,234.6,400,227.7L400,227.7z"/>
				<path fill-rule="evenodd" clip-rule="evenodd" fill="#3CD9CF" d="M429.5,220.8c-4.8-2.4-9.8-4.6-13.2-6.1c-1.6,7.3-8,13-16.4,13
					l0,0.1c0,6.8,6.6,11,14.8,9.4c8.2-1.6,14.8-8.3,14.8-15.1C429.6,221.7,429.5,221.3,429.5,220.8z"/>
			</g>
			<path fill-rule="evenodd" clip-rule="evenodd" fill="#E85F3B" d="M401.3,108.5c-14.3-0.4-42.4,11.4-40.1,75.4
				C351.4,151,368.4,95.1,401.3,108.5z"/>
			<path fill-rule="evenodd" clip-rule="evenodd" fill="#E85F3B" d="M398.8,108.5c14.3-0.4,42.4,11.4,40.1,75.4
				C448.8,151,431.8,95.1,398.8,108.5z"/>
			<path fill="#C79C6D" d="M405.7,162.5c1.5-1,3.7,0,2.2,1c-4.5,3.1-11.9,3.1-16.4,0c-1.5-1,0.5-1.8,2.2-1
				C397.1,164.1,402.5,164.1,405.7,162.5z"/>
			<g>
				
					<ellipse transform="matrix(0.3135 -0.9496 0.9496 0.3135 165.08 536.2669)" fill-rule="evenodd" clip-rule="evenodd" fill="#FAD3A8" cx="453.4" cy="154" rx="13.8" ry="7.1"/>
				
					<ellipse transform="matrix(-0.3135 -0.9496 0.9496 -0.3135 309.9224 531.9794)" fill-rule="evenodd" clip-rule="evenodd" fill="#FAD3A8" cx="347.3" cy="154" rx="13.8" ry="7.1"/>
			</g>
		</g>
		<g>
			<path fill-rule="evenodd" clip-rule="evenodd" fill="#FFFFFF" d="M635,252.1c54.1,0,98.1-44.1,98.1-98.1
				c0-54.1-44.1-98.1-98.1-98.1c-54.1,0-98.1,44.1-98.1,98.1C536.8,208,580.9,252.1,635,252.1z"/>
			<g>
				<rect x="616.3" y="173.9" fill-rule="evenodd" clip-rule="evenodd" fill="#E6B683" width="37.3" height="67.2"/>
				<ellipse fill-rule="evenodd" clip-rule="evenodd" fill="#471E00" cx="635" cy="135.5" rx="57.1" ry="54.5"/>
				<path fill-rule="evenodd" clip-rule="evenodd" fill="#FAD3A8" d="M636.9,103.9c25.2,0,45,13.7,41.8,46.4
					c-0.9,9.3,8.2,4.4,8.2,7.8c0,27.8-23.2,50.3-51.9,50.3c-28.7,0-51.9-22.5-51.9-50.3c6.1,8.9,7.1-2.4,6.8-7.6
					C587.6,107.8,610.5,103.9,636.9,103.9z"/>
				
					<path fill-rule="evenodd" clip-rule="evenodd" fill="none" stroke="#C99154" stroke-width="3.8401" stroke-linecap="round" stroke-linejoin="round" stroke-miterlimit="22.9256" d="
					M643.5,164c-4.7,4.6-12.3,4.6-17,0"/>
				<path fill-rule="evenodd" clip-rule="evenodd" fill="#E28D66" d="M662.5,174.6c-14.9,22.6-40.2,22.6-55.1,0H662.5z"/>
				<path fill-rule="evenodd" clip-rule="evenodd" fill="#EDA17D" d="M651.5,186.2c-10.4,7.2-22.6,7.2-33,0
					C628.4,173.9,641.6,173.9,651.5,186.2z"/>
				<g>
					<g>
						<ellipse fill-rule="evenodd" clip-rule="evenodd" fill="#333333" cx="617.4" cy="145" rx="4.5" ry="7.5"/>
						<circle fill-rule="evenodd" clip-rule="evenodd" fill="#FFFFFF" cx="618.1" cy="141.3" r="2.6"/>
					</g>
					<g>
						<ellipse fill-rule="evenodd" clip-rule="evenodd" fill="#333333" cx="652.6" cy="145" rx="4.5" ry="7.5"/>
						<circle fill-rule="evenodd" clip-rule="evenodd" fill="#FFFFFF" cx="653.2" cy="141.3" r="2.6"/>
					</g>
				</g>
				<g>
					
						<path fill-rule="evenodd" clip-rule="evenodd" fill="none" stroke="#471E00" stroke-width="3.8401" stroke-linecap="round" stroke-linejoin="round" stroke-miterlimit="22.9256" d="
						M607.9,134.7c1.7-5.2,7.7-8.5,12.7-7.4"/>
					
						<path fill-rule="evenodd" clip-rule="evenodd" fill="none" stroke="#471E00" stroke-width="3.8401" stroke-linecap="round" stroke-linejoin="round" stroke-miterlimit="22.9256" d="
						M662.1,134.7c-1.7-5.2-7.7-8.5-12.7-7.4"/>
				</g>
				<path fill-rule="evenodd" clip-rule="evenodd" fill="#471E00" d="M652.5,96.3c20.1,8.1,36.4,20,36.4,26.6
					c0,6.6-16.3,5.5-36.4-2.6c-20.1-8.1-36.4-20-36.4-26.6C616.1,87.1,632.4,88.3,652.5,96.3z"/>
				<g>
					<path fill-rule="evenodd" clip-rule="evenodd" fill="#FAD3A8" d="M576.3,140.9c2.9-1.2,7.4,3.6,10.1,10.9
						c2.7,7.2,2.6,14.1-0.3,15.3c-2.9,1.2-7.4-3.6-10.1-10.9C573.3,149,573.5,142.1,576.3,140.9z"/>
					
						<ellipse transform="matrix(0.3134 -0.9496 0.9496 0.3134 326.5871 759.6369)" fill-rule="evenodd" clip-rule="evenodd" fill="#FAD3A8" cx="688.6" cy="154" rx="13.8" ry="7.1"/>
				</g>
				<path fill-rule="evenodd" clip-rule="evenodd" fill="#471E00" d="M599.2,100.8c-11.2,7.1-11.7,19.2-11.7,22.8
					c0,3.5,9.1,0.6,20.2-6.4c11.2-7.1,20.2-15.7,20.2-19.2C628,94.4,610.4,93.7,599.2,100.8z"/>
				<path fill-rule="evenodd" clip-rule="evenodd" fill="#FFFFFF" d="M647.1,174.6c-0.7,6.1-24,5.5-24.2,0H647.1z"/>
			</g>
			<rect x="616.3" y="173.9" fill-rule="evenodd" clip-rule="evenodd" fill="#E6B683" width="37.3" height="67.2"/>
			<ellipse fill-rule="evenodd" clip-rule="evenodd" fill="#0F0600" cx="635" cy="135.5" rx="57.1" ry="54.5"/>
			<path fill-rule="evenodd" clip-rule="evenodd" fill="#FAD3A8" d="M636.9,105.6c10.5,0,21.5-5,28.8-0.2
				c10.2,6.7,14.8,25.8,13,44.8c-0.9,9.3,8.2,4.4,8.2,7.8c0,27.8-23.2,50.3-51.9,50.3c-28.7,0-51.9-22.5-51.9-50.3
				c6.1,8.9,7.1-2.4,6.8-7.6c-1.3-24.8,4.1-41.7,15.6-46.6C613.7,100.2,625.9,105.6,636.9,105.6z"/>
			<path fill-rule="evenodd" clip-rule="evenodd" fill="#E28D66" d="M662.2,172c-9.9,21.2-31.6,24.3-47.1,6.8L662.2,172z"/>
			<path fill-rule="evenodd" clip-rule="evenodd" fill="#EDA17D" d="M654.2,183.2c-8,7.4-18.4,8.9-28.2,4.1
				C633,175.5,644.3,173.9,654.2,183.2z"/>
			<g>
				<g>
					<ellipse fill-rule="evenodd" clip-rule="evenodd" fill="#333333" cx="617.4" cy="145" rx="4.5" ry="7.5"/>
					<circle fill-rule="evenodd" clip-rule="evenodd" fill="#FFFFFF" cx="618.1" cy="141.3" r="2.6"/>
				</g>
				<g>
					<ellipse fill-rule="evenodd" clip-rule="evenodd" fill="#333333" cx="652.6" cy="145" rx="4.5" ry="7.5"/>
					<circle fill-rule="evenodd" clip-rule="evenodd" fill="#FFFFFF" cx="653.2" cy="141.3" r="2.6"/>
				</g>
			</g>
			<path fill-rule="evenodd" clip-rule="evenodd" fill="#FFFFFF" d="M647.1,174.3c-0.5,4.7-14.7,5.4-21.1,2.9l20.3-2.9H647.1z"/>
			<path fill-rule="evenodd" clip-rule="evenodd" fill="#666666" d="M690.8,234.7c-9.7-7.9-27.6-14-37-17.6
				c-1.8,6.6-9.5,11.6-18.8,11.6c-9.3,0-17-5-18.8-11.6c-9.5,3.6-27.4,9.7-37,17.6c15.8,11,35.1,17.4,55.8,17.4
				C655.7,252.1,674.9,245.6,690.8,234.7z"/>
			<g>
				<path fill="#0F0600" d="M610.7,124c-2.1,1.4-3.8-0.7-1.7-2.1c5.3-3.4,13.2-2.1,17.1,2.7c1.6,2-1.4,4.4-3,2.4
					C620.3,123.7,614.3,121.6,610.7,124z"/>
				<path fill="#0F0600" d="M659.3,130.9c2.1,1.4,3.8-0.7,1.7-2.1c-5.3-3.4-13.2-2.1-17.1,2.7c-1.6,2,1.4,4.4,3,2.4
					C649.6,130.6,655.6,128.6,659.3,130.9z"/>
				<path fill="#0F0600" d="M649.4,130.9c0.8,1.4,1.4-0.7,0.6-2.1c-2-3.4-4.9-2.1-6.4,2.7c-0.6,2,0.5,4.4,1.1,2.4
					C645.8,130.6,648,128.6,649.4,130.9z"/>
			</g>
			<path fill="#C79C6D" d="M641,164.6c1.5-1,3.7,0,2.2,1c-4.5,3.1-11.9,3.1-16.4,0c-1.5-1,0.5-1.8,2.2-1
				C632.4,166.2,637.8,166.2,641,164.6z"/>
			<g>
				
					<ellipse transform="matrix(0.3135 -0.9496 0.9496 0.3135 326.1647 759.0837)" fill-rule="evenodd" clip-rule="evenodd" fill="#FAD3A8" cx="688.1" cy="154" rx="13.8" ry="7.1"/>
				
					<ellipse transform="matrix(-0.3135 -0.9496 0.9496 -0.3135 618.1268 754.7947)" fill-rule="evenodd" clip-rule="evenodd" fill="#FAD3A8" cx="581.9" cy="154" rx="13.8" ry="7.1"/>
			</g>
		</g>
		<g>
			<path fill-rule="evenodd" clip-rule="evenodd" fill="#FFFFFF" d="M164.9,715.5c54.1,0,98.1-44.1,98.1-98.1
				c0-54.1-44.1-98.1-98.1-98.1c-54.1,0-98.1,44.1-98.1,98.1C66.8,671.4,110.9,715.5,164.9,715.5z"/>
			<rect x="146.3" y="637.3" fill-rule="evenodd" clip-rule="evenodd" fill="#E6B683" width="37.3" height="67.2"/>
			<path fill-rule="evenodd" clip-rule="evenodd" fill="#D7910B" d="M200.4,556.3c13.2,10,21.7,25.4,21.7,42.7
				c0,30.1-25.6,54.5-57.1,54.5c-31.5,0-57.1-24.4-57.1-54.5c0-19.4,9.9-42.3,26.6-44.6C147.8,536.2,181.4,541.9,200.4,556.3z"/>
			<path fill-rule="evenodd" clip-rule="evenodd" fill="#FAD3A8" d="M166.8,567.3c25.2,0,42.7,17.5,39.6,50.2
				c-0.9,9.3,8.2,4.4,8.2,7.8c0,2.2,2.1,0.5,1.8,2.7c-3.3,24.7-25.1,43.8-51.5,43.8c-26.4,0-48.2-19.1-51.5-43.8
				c-0.3-2.1,4.7-3,4.7-5.3c6.1,8.9,5.1,1.1,4.5-4.1C117.9,571.5,140.4,567.3,166.8,567.3z"/>
			<path fill-rule="evenodd" clip-rule="evenodd" fill="#E28D66" d="M187.9,638c-12.4,12.8-33.5,12.8-45.9,0H187.9z"/>
			<path fill-rule="evenodd" clip-rule="evenodd" fill="#EDA17D" d="M178.7,644.6c-8.6,4-18.8,4-27.5,0
				C159.4,637.6,170.4,637.6,178.7,644.6z"/>
			<g>
				<g>
					<ellipse fill-rule="evenodd" clip-rule="evenodd" fill="#333333" cx="147.4" cy="608.5" rx="4.5" ry="7.5"/>
					<circle fill-rule="evenodd" clip-rule="evenodd" fill="#FFFFFF" cx="148" cy="604.7" r="2.6"/>
				</g>
				<g>
					<ellipse fill-rule="evenodd" clip-rule="evenodd" fill="#333333" cx="182.5" cy="608.5" rx="4.5" ry="7.5"/>
					<circle fill-rule="evenodd" clip-rule="evenodd" fill="#FFFFFF" cx="183.2" cy="604.7" r="2.6"/>
				</g>
			</g>
			<path fill-rule="evenodd" clip-rule="evenodd" fill="#D7910B" d="M187.7,564c22.2,14.6,26.5,39.2,25.2,46.7
				c-1.3,7.5-20.3,1.8-42.5-12.8c-22.2-14.6-39.1-32.5-37.8-40.1C133.9,550.3,165.6,549.4,187.7,564z"/>
			<g>
				<path fill-rule="evenodd" clip-rule="evenodd" fill="#FAD3A8" d="M106.3,604.3c2.9-1.2,7.4,3.6,10.1,10.9
					c2.7,7.2,2.6,14.1-0.3,15.3c-2.9,1.2-7.4-3.6-10.1-10.9C103.3,612.4,103.4,605.5,106.3,604.3z"/>
				
					<ellipse transform="matrix(0.3135 -0.9496 0.9496 0.3135 -436.2046 631.4088)" fill-rule="evenodd" clip-rule="evenodd" fill="#FAD3A8" cx="218.6" cy="617.4" rx="13.8" ry="7.1"/>
			</g>
			<path fill-rule="evenodd" clip-rule="evenodd" fill="#FFFFFF" d="M175,638c-0.6,6.1-20,5.5-20.2,0H175z"/>
			<path fill-rule="evenodd" clip-rule="evenodd" fill="#7991BF" d="M220.7,698.1c-9.7-7.9-27.6-14-37-17.6
				c-1.8,6.6-9.5,11.6-18.8,11.6c-9.3,0-17-5-18.8-11.6c-9.5,3.6-27.4,9.7-37,17.6c15.8,11,35.1,17.4,55.8,17.4
				C185.7,715.5,204.9,709.1,220.7,698.1z"/>
			<path fill="#C79C6D" d="M170.9,628.3c1.5-1,3.7,0,2.2,1c-4.5,3.1-11.9,3.1-16.4,0c-1.5-1,0.5-1.8,2.2-1
				C162.4,630,167.8,629.9,170.9,628.3z"/>
			<g>
				<path fill="#D7910B" d="M136.4,592.7c-1.9,2.2-4.8,1.2-2.9-1c4.7-5.5,14.4-8.2,21-5.8c2.7,1,0.3,4.5-2.4,3.5
					C147.5,587.8,139.7,588.9,136.4,592.7z"/>
				<path fill="#D7910B" d="M193.4,592.7c1.9,2.2,4.8,1.2,2.9-1c-4.7-5.5-14.4-8.2-21-5.8c-2.7,1-0.3,4.5,2.4,3.5
					C182.3,587.8,190.2,588.9,193.4,592.7z"/>
			</g>
			<path fill="#D7910B" d="M165.4,654.7c3.5,0,4.8,8.9,8.6,11.1c9.6,5.6,14.8-18.4,14.9-23.9c0.1-3.5,1.8-3.4,2-0.3
				c0.7,10.4,7.1,34.6-25.6,34.6c-32.6,0-26.2-24.2-25.6-34.6c0.2-3.1,1.9-3.2,2,0.3c0.2,5.5,5.4,29.5,14.9,23.9
				C160.6,663.5,161.9,654.7,165.4,654.7z"/>
		</g>
		<g>
			<path fill-rule="evenodd" clip-rule="evenodd" fill="#FFFFFF" d="M635,483.8c54.1,0,98.1-44.1,98.1-98.1
				c0-54.1-44.1-98.1-98.1-98.1c-54.1,0-98.1,44.1-98.1,98.1C536.8,439.7,580.9,483.8,635,483.8z"/>
			<path fill-rule="evenodd" clip-rule="evenodd" fill="#D7910B" d="M634.7,434.1c5.7-39.1,48.6-78.6,55.8-82.7
				c8.8,23,24.7,61.5-6.1,81.4C666,434.3,643.1,434.1,634.7,434.1z"/>
			<path fill-rule="evenodd" clip-rule="evenodd" fill="#D7910B" d="M634.7,434.1c-5.7-39.1-48.6-78.6-55.8-82.7
				c-8.8,23-24.7,61.5,6.1,81.4C603.4,434.3,626.3,434.1,634.7,434.1z"/>
			<g>
				<rect x="616.3" y="405.6" fill-rule="evenodd" clip-rule="evenodd" fill="#E6B683" width="37.3" height="67.2"/>
				<ellipse fill-rule="evenodd" clip-rule="evenodd" fill="#471E00" cx="635" cy="367.3" rx="57.1" ry="54.5"/>
				
					<path fill-rule="evenodd" clip-rule="evenodd" fill="none" stroke="#C99154" stroke-width="3.8401" stroke-linecap="round" stroke-linejoin="round" stroke-miterlimit="22.9256" d="
					M643.5,395.7c-4.7,4.6-12.3,4.6-17,0"/>
				<path fill-rule="evenodd" clip-rule="evenodd" fill="#E28D66" d="M662.5,406.3c-14.9,22.6-40.2,22.6-55.1,0H662.5z"/>
				<path fill-rule="evenodd" clip-rule="evenodd" fill="#EDA17D" d="M651.5,417.9c-10.4,7.2-22.6,7.2-33,0
					C628.4,405.6,641.6,405.6,651.5,417.9z"/>
				<g>
					<g>
						<ellipse fill-rule="evenodd" clip-rule="evenodd" fill="#333333" cx="617.4" cy="376.7" rx="4.5" ry="7.5"/>
						<circle fill-rule="evenodd" clip-rule="evenodd" fill="#FFFFFF" cx="618.1" cy="373" r="2.6"/>
					</g>
					<g>
						<ellipse fill-rule="evenodd" clip-rule="evenodd" fill="#333333" cx="652.6" cy="376.7" rx="4.5" ry="7.5"/>
						<circle fill-rule="evenodd" clip-rule="evenodd" fill="#FFFFFF" cx="653.2" cy="373" r="2.6"/>
					</g>
				</g>
				<g>
					
						<path fill-rule="evenodd" clip-rule="evenodd" fill="none" stroke="#471E00" stroke-width="3.8401" stroke-linecap="round" stroke-linejoin="round" stroke-miterlimit="22.9256" d="
						M607.9,366.5c1.7-5.2,7.7-8.5,12.7-7.4"/>
					
						<path fill-rule="evenodd" clip-rule="evenodd" fill="none" stroke="#471E00" stroke-width="3.8401" stroke-linecap="round" stroke-linejoin="round" stroke-miterlimit="22.9256" d="
						M662.1,366.5c-1.7-5.2-7.7-8.5-12.7-7.4"/>
				</g>
				<path fill-rule="evenodd" clip-rule="evenodd" fill="#471E00" d="M652.5,328.1c20.1,8.1,36.4,20,36.4,26.6
					c0,6.6-16.3,5.5-36.4-2.6c-20.1-8.1-36.4-20-36.4-26.6C616.1,318.9,632.4,320,652.5,328.1z"/>
				<g>
					<path fill-rule="evenodd" clip-rule="evenodd" fill="#FAD3A8" d="M576.3,372.6c2.9-1.2,7.4,3.6,10.1,10.9
						c2.7,7.2,2.6,14.1-0.3,15.3c-2.9,1.2-7.4-3.6-10.1-10.9C573.3,380.7,573.5,373.8,576.3,372.6z"/>
					
						<ellipse transform="matrix(0.3134 -0.9496 0.9496 0.3134 106.5535 918.7198)" fill-rule="evenodd" clip-rule="evenodd" fill="#FAD3A8" cx="688.6" cy="385.7" rx="13.8" ry="7.1"/>
				</g>
				<path fill-rule="evenodd" clip-rule="evenodd" fill="#471E00" d="M599.2,332.5c-11.2,7.1-11.7,19.2-11.7,22.8
					c0,3.5,9.1,0.6,20.2-6.4c11.2-7.1,20.2-15.7,20.2-19.2C628,326.1,610.4,325.4,599.2,332.5z"/>
				<path fill-rule="evenodd" clip-rule="evenodd" fill="#FFFFFF" d="M647.1,406.3c-0.7,6.1-24,5.5-24.2,0H647.1z"/>
			</g>
			<rect x="616.3" y="405.6" fill-rule="evenodd" clip-rule="evenodd" fill="#E6B683" width="37.3" height="67.2"/>
			<path fill-rule="evenodd" clip-rule="evenodd" fill="#D7910B" d="M635,311.9c33-11.2,56.9,31.2,61.6,61.9s-30.1,48-61.6,48
				c-31.5,0-66.1-20.6-61.6-51.2C577.8,339.8,604.9,301.3,635,311.9z"/>
			<path fill-rule="evenodd" clip-rule="evenodd" fill="#FAD3A8" d="M636.8,335.6c23.3,0,47.1,11.5,44.2,44.2
				c-0.8,9.3,3.5,5.6,3.5,9c0,27.8-37.9,51.3-49.5,51.3c-11.6,0-49.8-23.5-49.8-51.3c5.6,8.9,3.7-2.1,3.5-7.3
				C586.6,338.9,612.4,335.6,636.8,335.6z"/>
			<g>
				<g>
					<ellipse fill-rule="evenodd" clip-rule="evenodd" fill="#333333" cx="617.4" cy="376.7" rx="4.5" ry="7.5"/>
					<circle fill-rule="evenodd" clip-rule="evenodd" fill="#FFFFFF" cx="618.1" cy="373" r="2.6"/>
				</g>
				<g>
					<ellipse fill-rule="evenodd" clip-rule="evenodd" fill="#333333" cx="652.6" cy="376.7" rx="4.5" ry="7.5"/>
					<circle fill-rule="evenodd" clip-rule="evenodd" fill="#FFFFFF" cx="653.2" cy="373" r="2.6"/>
				</g>
			</g>
			<path fill-rule="evenodd" clip-rule="evenodd" fill="#E6B683" d="M690.8,466.4c-9.7-7.9-27.6-14-37-17.6
				c-1.8,6.6-9.5,11.6-18.8,11.6c-9.3,0-17-5-18.8-11.6c-9.5,3.6-27.4,9.7-37,17.6c15.8,11,35.1,17.4,55.8,17.4
				C655.7,483.8,674.9,477.4,690.8,466.4z"/>
			<path fill="#C79C6D" d="M639.9,398c1.2-0.8,3.1,0,1.8,0.8c-3.7,2.6-9.8,2.6-13.5,0c-1.2-0.8,0.4-1.5,1.8-0.8
				C632.9,399.4,637.3,399.3,639.9,398z"/>
			<path fill-rule="evenodd" clip-rule="evenodd" fill="#D7910B" d="M633.4,356.2c-70-0.3-46.1-34.2,1.6-34.2
				C685.1,321.9,705.7,356.5,633.4,356.2z"/>
			<g>
				<path fill="#D7910B" d="M663.4,363.6c-3.5-0.2-9.6-3.1-14.9,2.1c-1.8,1.6-3.9-0.6-1.9-2.2C654.3,357.1,668.8,363.9,663.4,363.6z
					"/>
				<path fill="#D7910B" d="M606.6,363.6c3.5-0.2,9.6-3.1,14.9,2.1c1.8,1.6,3.9-0.6,1.9-2.2C615.7,357.1,601.2,363.9,606.6,363.6z"
					/>
			</g>
			<path fill-rule="evenodd" clip-rule="evenodd" fill="#E28D66" d="M654.3,407.2c-10.4,15.5-28.3,15.6-38.7,0
				c8.5-3.6,17.3,1,19.7,1C637.8,408.2,645.1,403.4,654.3,407.2z"/>
			<g>
				
					<ellipse transform="matrix(0.3135 -0.9496 0.9496 0.3135 106.1418 918.1588)" fill-rule="evenodd" clip-rule="evenodd" fill="#FAD3A8" cx="688.1" cy="385.7" rx="13.8" ry="7.1"/>
				
					<ellipse transform="matrix(-0.3135 -0.9496 0.9496 -0.3135 398.0942 1059.144)" fill-rule="evenodd" clip-rule="evenodd" fill="#FAD3A8" cx="581.9" cy="385.7" rx="13.8" ry="7.1"/>
			</g>
			<path fill-rule="evenodd" clip-rule="evenodd" fill="#D7910B" d="M587.3,424.3c0.3-19.1-0.6-54.2,30.4-86.8
				C585,336,565.1,395.4,587.3,424.3z"/>
			<path fill-rule="evenodd" clip-rule="evenodd" fill="#D7910B" d="M682.7,423.6c-0.3-19.1,0.6-54.2-30.4-86.8
				C686.2,333,704.7,392.2,682.7,423.6z"/>
			<path fill-rule="evenodd" clip-rule="evenodd" fill="#E85F3B" d="M654.7,449.2l-1-0.4c-1.8,6.6-9.5,11.6-18.8,11.6
				c-9.3,0-17-5-18.8-11.6l-1,0.4c-2.3,11-4.5,22.2-6.3,31.1c8.3,2.3,17,3.5,26.1,3.5s17.8-1.2,26.1-3.5
				C659.3,471.4,657,460.2,654.7,449.2z"/>
		</g>
		<g>
			<path fill-rule="evenodd" clip-rule="evenodd" fill="#FFFFFF" d="M164.9,483.8c54.1,0,98.1-44.1,98.1-98.1
				c0-54.1-44.1-98.1-98.1-98.1c-54.1,0-98.1,44.1-98.1,98.1C66.8,439.7,110.9,483.8,164.9,483.8z"/>
			<path fill-rule="evenodd" clip-rule="evenodd" fill="#0F0600" d="M207.1,446c19.1-16.6,35.5-93.3-23.1-116.1
				C225.8,368,211.3,430,207.1,446z"/>
			<path fill-rule="evenodd" clip-rule="evenodd" fill="#0F0600" d="M224.5,432.2c14.5-18.8,12.8-97.9-45.8-113.4
				C224.8,351.6,225.4,415.9,224.5,432.2z"/>
			<path fill-rule="evenodd" clip-rule="evenodd" fill="#0F0600" d="M236,404.3c14.2-21.1-22.7-112.5-86.7-88.6
				C213.3,340.4,234.5,385.9,236,404.3z"/>
			<ellipse fill-rule="evenodd" clip-rule="evenodd" fill="#0F0600" cx="164.9" cy="397.9" rx="48.7" ry="66.6"/>
			<path fill-rule="evenodd" clip-rule="evenodd" fill="#0F0600" d="M124.6,446c-19.1-16.6-35.5-93.3,23.1-116.1
				C105.8,368,120.3,430,124.6,446z"/>
			<path fill-rule="evenodd" clip-rule="evenodd" fill="#0F0600" d="M107.1,432.2c-14.5-18.8-12.8-97.9,45.8-113.4
				C106.8,351.6,106.3,415.9,107.1,432.2z"/>
			<path fill-rule="evenodd" clip-rule="evenodd" fill="#0F0600" d="M95.6,404.3c-14.2-21.1,1.5-90.1,61.4-90.1
				C99.3,341.8,103,388.6,95.6,404.3z"/>
			<rect x="146.3" y="405.6" fill-rule="evenodd" clip-rule="evenodd" fill="#E6B683" width="37.3" height="67.2"/>
			<path fill-rule="evenodd" clip-rule="evenodd" fill="#0F0600" d="M226.5,366.7c0,33.9-30,55.1-61.6,55.1
				c-31.5,0-57.9-27.1-57.9-57.2c0-24.6,12.4-47.8,41.9-49.6C185.4,301.6,226.5,332.7,226.5,366.7z"/>
			
				<path fill-rule="evenodd" clip-rule="evenodd" fill="none" stroke="#C99154" stroke-width="3.8401" stroke-linecap="round" stroke-linejoin="round" stroke-miterlimit="22.9256" d="
				M173.4,395.7c-4.7,4.6-12.3,4.6-17,0"/>
			<path fill-rule="evenodd" clip-rule="evenodd" fill="#EDA17D" d="M181.4,417.9c-10.4,7.2-22.6,7.2-33,0
				C158.3,405.6,171.5,405.6,181.4,417.9z"/>
			<g>
				
					<path fill-rule="evenodd" clip-rule="evenodd" fill="none" stroke="#471E00" stroke-width="3.8401" stroke-linecap="round" stroke-linejoin="round" stroke-miterlimit="22.9256" d="
					M137.9,366.5c1.7-5.2,7.7-8.5,12.7-7.4"/>
				
					<path fill-rule="evenodd" clip-rule="evenodd" fill="none" stroke="#471E00" stroke-width="3.8401" stroke-linecap="round" stroke-linejoin="round" stroke-miterlimit="22.9256" d="
					M192,366.5c-1.7-5.2-7.7-8.5-12.7-7.4"/>
			</g>
			<g>
				<path fill-rule="evenodd" clip-rule="evenodd" fill="#FAD3A8" d="M106.3,372.6c2.9-1.2,7.4,3.6,10.1,10.9
					c2.7,7.2,2.6,14.1-0.3,15.3c-2.9,1.2-7.4-3.6-10.1-10.9C103.3,380.7,103.4,373.8,106.3,372.6z"/>
				
					<ellipse transform="matrix(0.3135 -0.9496 0.9496 0.3135 -216.1733 472.3333)" fill-rule="evenodd" clip-rule="evenodd" fill="#FAD3A8" cx="218.6" cy="385.7" rx="13.8" ry="7.1"/>
			</g>
			<path fill-rule="evenodd" clip-rule="evenodd" fill="#0F0600" d="M129.2,332.5c-11.2,7.1-11.7,19.2-11.7,22.8
				c0,3.5,9.1,0.6,20.2-6.4c11.2-7.1,20.2-15.7,20.2-19.2C157.9,326.1,140.4,325.4,129.2,332.5z"/>
			<path fill-rule="evenodd" clip-rule="evenodd" fill="#FFFFFF" d="M177,406.3c-0.7,6.1-24,5.5-24.2,0H177z"/>
			<path fill-rule="evenodd" clip-rule="evenodd" fill="#E6B683" d="M146.3,405.6h37.3l-0.2,74.7c-12.4,3.6-24.9,3.9-37.3,0
				L146.3,405.6z"/>
			<path fill-rule="evenodd" clip-rule="evenodd" fill="#FAD3A8" d="M166.8,335.6c24.3,0,43.4,13.7,40.4,46.4
				c-0.9,9.3,7.9,4.4,7.9,7.8c0,27.8-42.6,53.9-50.1,53.9c-7.5,0-50.1-26.1-50.1-53.9c5.9,8.9,6.8-2.4,6.5-7.6
				C119.2,339.5,141.3,335.6,166.8,335.6z"/>
			<path fill="#C79C6D" d="M170.9,404.2c1.5-1,3.7,0,2.2,1c-4.5,3.1-11.9,3.1-16.4,0c-1.5-1,0.5-1.8,2.2-1
				C162.4,405.9,167.8,405.9,170.9,404.2z"/>
			<g>
				<g>
					<ellipse fill-rule="evenodd" clip-rule="evenodd" fill="#333333" cx="147.4" cy="380.9" rx="4.5" ry="7.5"/>
					<circle fill-rule="evenodd" clip-rule="evenodd" fill="#FFFFFF" cx="148" cy="377.2" r="2.6"/>
				</g>
				<g>
					<ellipse fill-rule="evenodd" clip-rule="evenodd" fill="#333333" cx="182.5" cy="380.9" rx="4.5" ry="7.5"/>
					<circle fill-rule="evenodd" clip-rule="evenodd" fill="#FFFFFF" cx="183.2" cy="377.2" r="2.6"/>
				</g>
			</g>
			<path fill-rule="evenodd" clip-rule="evenodd" fill="#FAD3A8" d="M106.3,372.6c2.9-1.2,7.4,3.6,10.1,10.9
				c2.7,7.2,2.6,14.1-0.3,15.3c-2.9,1.2-7.4-3.6-10.1-10.9C103.3,380.7,103.4,373.8,106.3,372.6z"/>
			
				<ellipse transform="matrix(0.3135 -0.9496 0.9496 0.3135 -216.1733 472.3333)" fill-rule="evenodd" clip-rule="evenodd" fill="#FAD3A8" cx="218.6" cy="385.7" rx="13.8" ry="7.1"/>
			<path fill-rule="evenodd" clip-rule="evenodd" fill="#0F0600" d="M122.3,349.1c-10.5,13.5-5.2,29.5-5.2,33c0,3.5,8.5-4.6,19.1-18
				c10.5-13.5,19.1-27.3,19.1-30.8C155.2,329.8,132.8,335.6,122.3,349.1z"/>
			<path fill-rule="evenodd" clip-rule="evenodd" fill="#E6B683" d="M220.7,466.4c-9.7-7.9-27.6-14-37-17.6
				c-13.5,17.9-24.1,18.1-37.5,0c-9.5,3.6-27.4,9.7-37,17.6c15.8,11,35.1,17.4,55.8,17.4C185.7,483.8,204.9,477.4,220.7,466.4z"/>
			<path fill-rule="evenodd" clip-rule="evenodd" fill="#E28D66" d="M184.3,414c-10.4,15.5-28.3,15.6-38.7,0c8.5-3.6,17.3,1,19.7,1
				C167.7,414.9,175,410.1,184.3,414z"/>
			<g>
				<path fill="#0F0600" d="M193.3,371.5c-3.5-0.2-9.6-3.1-14.9,2.1c-1.8,1.6-3.9-0.6-1.9-2.2C184.3,365,198.8,371.8,193.3,371.5z"
					/>
				<path fill="#0F0600" d="M136.5,371.5c3.5-0.2,9.6-3.1,14.9,2.1c1.8,1.6,3.9-0.6,1.9-2.2C145.6,365,131.1,371.8,136.5,371.5z"/>
			</g>
			<path fill-rule="evenodd" clip-rule="evenodd" fill="#0F0600" d="M233.8,384c-18,7.3-86.8-11-93.5-64.6
				C163.3,367.4,219.4,381.3,233.8,384z"/>
			<path fill-rule="evenodd" clip-rule="evenodd" fill="#0F0600" d="M215.6,375.9c-6.9,5.8-60.5,1.7-74.6-52.2
				C170.8,322.4,209.8,328.1,215.6,375.9z"/>
			<path fill-rule="evenodd" clip-rule="evenodd" fill="#0F0600" d="M185.2,393.1c-17.8-2.6-56-38.1-34.9-76.6
				C142.4,356.1,171.7,385.9,185.2,393.1z"/>
			<path fill-rule="evenodd" clip-rule="evenodd" fill="#3CD9CF" d="M220.7,466.4c-9.7-7.9-27.6-14-37-17.6
				c6,2.4,27.6,32.3-18.8,32.3c-46.3,0-24.5-30.3-18.8-32.3c-9.5,3.6-27.4,9.7-37,17.6c15.8,11,35.1,17.4,55.8,17.4
				C185.7,483.8,204.9,477.4,220.7,466.4z"/>
		</g>
		<g>
			<path fill-rule="evenodd" clip-rule="evenodd" fill="#FFFFFF" d="M400,715.5c54.1,0,98.1-44.1,98.1-98.1
				c0-54.1-44.1-98.1-98.1-98.1c-54.1,0-98.1,44.1-98.1,98.1C301.8,671.4,345.9,715.5,400,715.5z"/>
			<g>
				<rect x="381.3" y="637.3" fill-rule="evenodd" clip-rule="evenodd" fill="#E6B683" width="37.3" height="67.2"/>
				<ellipse fill-rule="evenodd" clip-rule="evenodd" fill="#471E00" cx="400" cy="599" rx="57.1" ry="54.5"/>
				<path fill-rule="evenodd" clip-rule="evenodd" fill="#FAD3A8" d="M401.9,567.3c25.2,0,45,13.7,41.8,46.4
					c-0.9,9.3,8.2,4.4,8.2,7.8c0,27.8-23.2,50.3-51.9,50.3c-28.7,0-51.9-22.5-51.9-50.3c6.1,8.9,7.1-2.4,6.8-7.6
					C352.6,571.2,375.5,567.3,401.9,567.3z"/>
				
					<path fill-rule="evenodd" clip-rule="evenodd" fill="none" stroke="#C99154" stroke-width="3.8401" stroke-linecap="round" stroke-linejoin="round" stroke-miterlimit="22.9256" d="
					M408.5,627.4c-4.7,4.6-12.3,4.6-17,0"/>
				<path fill-rule="evenodd" clip-rule="evenodd" fill="#E28D66" d="M427.5,638c-14.9,22.6-40.2,22.6-55.1,0H427.5z"/>
				<path fill-rule="evenodd" clip-rule="evenodd" fill="#EDA17D" d="M416.5,649.6c-10.4,7.2-22.6,7.2-33,0
					C393.4,637.3,406.6,637.3,416.5,649.6z"/>
				<g>
					<g>
						<ellipse fill-rule="evenodd" clip-rule="evenodd" fill="#333333" cx="382.4" cy="608.5" rx="4.5" ry="7.5"/>
						<circle fill-rule="evenodd" clip-rule="evenodd" fill="#FFFFFF" cx="383" cy="604.7" r="2.6"/>
					</g>
					<g>
						<ellipse fill-rule="evenodd" clip-rule="evenodd" fill="#333333" cx="417.5" cy="608.5" rx="4.5" ry="7.5"/>
						<circle fill-rule="evenodd" clip-rule="evenodd" fill="#FFFFFF" cx="418.2" cy="604.7" r="2.6"/>
					</g>
				</g>
				<g>
					
						<path fill-rule="evenodd" clip-rule="evenodd" fill="none" stroke="#471E00" stroke-width="3.8401" stroke-linecap="round" stroke-linejoin="round" stroke-miterlimit="22.9256" d="
						M372.9,598.2c1.7-5.2,7.7-8.5,12.7-7.4"/>
					
						<path fill-rule="evenodd" clip-rule="evenodd" fill="none" stroke="#471E00" stroke-width="3.8401" stroke-linecap="round" stroke-linejoin="round" stroke-miterlimit="22.9256" d="
						M427,598.2c-1.7-5.2-7.7-8.5-12.7-7.4"/>
				</g>
				<path fill-rule="evenodd" clip-rule="evenodd" fill="#471E00" d="M417.4,559.8c20.1,8.1,36.4,20,36.4,26.6s-16.3,5.5-36.4-2.6
					c-20.1-8.1-36.4-20-36.4-26.6C381.1,550.6,397.3,551.7,417.4,559.8z"/>
				<g>
					<path fill-rule="evenodd" clip-rule="evenodd" fill="#FAD3A8" d="M341.3,604.3c2.9-1.2,7.4,3.6,10.1,10.9
						c2.7,7.2,2.6,14.1-0.3,15.3c-2.9,1.2-7.4-3.6-10.1-10.9C338.3,612.4,338.4,605.5,341.3,604.3z"/>
					<path fill-rule="evenodd" clip-rule="evenodd" fill="#FAD3A8" d="M457.9,604.3c-3.7-1.2-8.7,3.6-11.1,10.9
						c-2.4,7.2-1.3,14.1,2.4,15.3c3.7,1.2,8.7-3.6,11.1-10.9C462.7,612.4,461.6,605.5,457.9,604.3z"/>
				</g>
				<path fill-rule="evenodd" clip-rule="evenodd" fill="#471E00" d="M364.2,564.2c-11.2,7.1-11.7,19.2-11.7,22.8
					c0,3.5,9.1,0.6,20.2-6.4c11.2-7.1,20.2-15.7,20.2-19.2C393,557.8,375.4,557.1,364.2,564.2z"/>
				<path fill-rule="evenodd" clip-rule="evenodd" fill="#FFFFFF" d="M412.1,638c-0.7,6.1-24,5.5-24.2,0H412.1z"/>
			</g>
			<rect x="381.3" y="637.3" fill-rule="evenodd" clip-rule="evenodd" fill="#E6B683" width="37.3" height="67.2"/>
			<path fill-rule="evenodd" clip-rule="evenodd" fill="#471E00" d="M443.4,562.9c8.9,9.6,13.6,22.2,13.6,36
				c0,30.1-25.6,54.5-57.1,54.5c-31.5,0-56-24.4-57.1-54.5c-1-25.9,20.7-54.7,47.4-53.7C402.6,535.6,430.1,548.5,443.4,562.9z"/>
			<path fill-rule="evenodd" clip-rule="evenodd" fill="#FAD3A8" d="M401.9,567.3c25.2,0,45,13.7,41.8,46.4
				c-0.9,9.3,8.2,4.4,8.2,7.8c0,27.8-23.2,50.3-51.9,50.3c-28.7,0-51.9-22.5-51.9-50.3c6.1,8.9,7.1-2.4,6.8-7.6
				C352.6,571.2,375.5,567.3,401.9,567.3z"/>
			<path fill-rule="evenodd" clip-rule="evenodd" fill="#E28D66" d="M427.5,638c-14.9,22.6-40.2,22.6-55.1,0H427.5z"/>
			<path fill-rule="evenodd" clip-rule="evenodd" fill="#EDA17D" d="M416.5,649.6c-10.4,7.2-22.6,7.2-33,0
				C393.4,637.3,406.6,637.3,416.5,649.6z"/>
			<g>
				<g>
					<ellipse fill-rule="evenodd" clip-rule="evenodd" fill="#333333" cx="382.4" cy="608.5" rx="4.5" ry="7.5"/>
					<circle fill-rule="evenodd" clip-rule="evenodd" fill="#FFFFFF" cx="383" cy="604.7" r="2.6"/>
				</g>
				<g>
					<ellipse fill-rule="evenodd" clip-rule="evenodd" fill="#333333" cx="417.5" cy="608.5" rx="4.5" ry="7.5"/>
					<circle fill-rule="evenodd" clip-rule="evenodd" fill="#FFFFFF" cx="418.2" cy="604.7" r="2.6"/>
				</g>
			</g>
			<path fill-rule="evenodd" clip-rule="evenodd" fill="#471E00" d="M417.4,559.8c20.1,8.1,36.4,20,36.4,26.6s-16.3,5.5-36.4-2.6
				c-20.1-8.1-36.4-20-36.4-26.6C381.1,550.6,397.3,551.7,417.4,559.8z"/>
			<g>
				<path fill-rule="evenodd" clip-rule="evenodd" fill="#FAD3A8" d="M341.3,604.3c2.9-1.2,7.4,3.6,10.1,10.9
					c2.7,7.2,2.6,14.1-0.3,15.3c-2.9,1.2-7.4-3.6-10.1-10.9C338.3,612.4,338.4,605.5,341.3,604.3z"/>
				<path fill-rule="evenodd" clip-rule="evenodd" fill="#FAD3A8" d="M457.9,604.3c-3.7-1.2-8.7,3.6-11.1,10.9
					c-2.4,7.2-1.3,14.1,2.4,15.3c3.7,1.2,8.7-3.6,11.1-10.9C462.7,612.4,461.6,605.5,457.9,604.3z"/>
			</g>
			<path fill-rule="evenodd" clip-rule="evenodd" fill="#471E00" d="M364.2,564.2c-11.2,7.1-11.7,19.2-11.7,22.8
				c0,3.5,9.1,0.6,20.2-6.4c11.2-7.1,20.2-15.7,20.2-19.2C393,557.8,375.4,557.1,364.2,564.2z"/>
			<path fill-rule="evenodd" clip-rule="evenodd" fill="#FFFFFF" d="M412.1,638c-0.7,6.1-24,5.5-24.2,0H412.1z"/>
			<path fill-rule="evenodd" clip-rule="evenodd" fill="#666666" d="M455.8,698.1c-9.7-7.9-27.6-14-37-17.6
				c-1.8,6.6-9.5,7.6-18.8,7.6c-9.3,0-17-1-18.8-7.6c-9.5,3.6-27.4,9.7-37,17.6c15.8,11,35.1,17.4,55.8,17.4
				C420.7,715.5,439.9,709.1,455.8,698.1z"/>
			<path fill="#C79C6D" d="M405.9,628.3c1.5-1,3.7,0,2.2,1c-4.5,3.1-11.9,3.1-16.4,0c-1.5-1,0.5-1.8,2.2-1
				C397.4,630,402.8,629.9,405.9,628.3z"/>
			<g>
				<path fill="#471E00" d="M371.4,594.1c-2.4,1.6-4.9-0.1-2.5-1.8c6-4,16.1-3.9,21.8,0.2c2.3,1.7-1,4.4-3.3,2.7
					C383.5,592.4,375.6,591.3,371.4,594.1z"/>
				<path fill="#471E00" d="M428.5,594.1c2.4,1.6,4.9-0.1,2.5-1.7c-6-4-16.1-3.9-21.8,0.2c-2.3,1.7,1,4.4,3.3,2.7
					C416.5,592.4,424.3,591.3,428.5,594.1z"/>
			</g>
			<path fill-rule="evenodd" clip-rule="evenodd" fill="#E6E6E6" d="M400.6,687.9l-18.7,13.6c-5.6-5.2-7.3-11.3-9.4-17.4
				c4.8-3,7.5-4.4,8.9-9.1c-0.7,16.5,38.8,18.1,37.1-0.1c1.3,5,4.2,6.2,9.2,9.2c-2,6-4,12.2-9.5,17.4L400.6,687.9z"/>
		</g>
	</g>
</g>
</svg>
