<?xml version="1.0" encoding="utf-8"?>
<!-- Generator: Adobe Illustrator 17.1.0, SVG Export Plug-In . SVG Version: 6.00 Build 0)  -->
<!DOCTYPE svg PUBLIC "-//W3C//DTD SVG 1.1//EN" "http://www.w3.org/Graphics/SVG/1.1/DTD/svg11.dtd">
<svg version="1.1" id="Layer_1" xmlns="http://www.w3.org/2000/svg" xmlns:xlink="http://www.w3.org/1999/xlink" x="0px" y="0px"
	 viewBox="0 0 195.6 195.6" enable-background="new 0 0 195.6 195.6" xml:space="preserve">
<rect x="81.7" y="107.4" fill-rule="evenodd" clip-rule="evenodd" fill="#E6B783" width="37.3" height="67.2"/>
<path fill-rule="evenodd" clip-rule="evenodd" fill="#E8603B" d="M100.8,14.3c31.3-7.2,62.3,29.6,62.3,60.3
	c0,30.8-29.6,48.9-62.7,48.9c-33.1,0-62-17.5-62-48.2C38.3,44.5,65.4,8,100.8,14.3z"/>
<path fill-rule="evenodd" clip-rule="evenodd" fill="#FAD3A8" d="M102.2,37.4c25.2,0,45,13.7,41.8,46.4c-0.9,9.3,8.2,4.4,8.2,7.8
	c0,27.8-23.2,50.3-51.9,50.3c-28.7,0-51.9-22.5-51.9-50.3c6.1,8.9,7.1-2.4,6.8-7.6C52.9,41.3,75.8,37.4,102.2,37.4z"/>
<path fill-rule="evenodd" clip-rule="evenodd" fill="none" stroke="#CA9255" stroke-width="3.8401" stroke-linecap="round" stroke-linejoin="round" stroke-miterlimit="22.9256" d="
	M108.8,97.5c-4.7,4.6-12.3,4.6-17,0"/>
<path fill-rule="evenodd" clip-rule="evenodd" fill="#E28E66" d="M127.9,108.1c-14.9,22.6-40.2,22.6-55.1,0H127.9z"/>
<path fill-rule="evenodd" clip-rule="evenodd" fill="#EEA27E" d="M116.8,119.7c-10.4,7.2-22.6,7.2-33,0
	C93.7,107.4,106.9,107.4,116.8,119.7z"/>
<g>
	<g>
		<ellipse fill-rule="evenodd" clip-rule="evenodd" fill="#343434" cx="82.7" cy="78.6" rx="4.5" ry="7.5"/>
		<circle fill-rule="evenodd" clip-rule="evenodd" fill="#FFFFFF" cx="83.4" cy="74.8" r="2.6"/>
	</g>
	<g>
		<ellipse fill-rule="evenodd" clip-rule="evenodd" fill="#343434" cx="117.9" cy="78.6" rx="4.5" ry="7.5"/>
		<circle fill-rule="evenodd" clip-rule="evenodd" fill="#FFFFFF" cx="118.6" cy="74.8" r="2.6"/>
	</g>
</g>
<g>
	<path fill-rule="evenodd" clip-rule="evenodd" fill="#FAD3A8" d="M41.7,74.4c2.9-1.2,7.4,3.6,10.1,10.9c2.7,7.2,2.6,14.1-0.3,15.3
		c-2.9,1.2-7.4-3.6-10.1-10.9C38.7,82.5,38.8,75.6,41.7,74.4z"/>
	<path fill-rule="evenodd" clip-rule="evenodd" fill="#FAD3A8" d="M158.3,74.4c-3.7-1.2-8.7,3.6-11.1,10.9
		c-2.4,7.2-1.3,14.1,2.4,15.3c3.7,1.2,8.7-3.6,11.1-10.9C163.1,82.5,162,75.6,158.3,74.4z"/>
</g>
<path fill-rule="evenodd" clip-rule="evenodd" fill="#FFFFFF" d="M112.4,108.1c-0.7,6.1-24,5.5-24.2,0H112.4z"/>
<path fill-rule="evenodd" clip-rule="evenodd" fill="#E8603B" d="M100.3,14.6c31.5,0,59.4,17.7,63.8,63.5c4.4,45.8,3.7,97-62.8,97
	c-66.4,0-67.7-46-64-93.7C41.1,33.7,68.8,14.6,100.3,14.6z"/>
<rect x="84.1" y="107.4" fill-rule="evenodd" clip-rule="evenodd" fill="#E6B783" width="32.4" height="67.2"/>
<path fill-rule="evenodd" clip-rule="evenodd" fill="#FAD3A8" d="M101.3,42.3c27.8-11.8,38.5,19.4,41.3,42.6
	c1.6,13.8,5.6,4.4,5.6,7.8c0,27.8-34.4,49.3-47.9,49.3c-13.5,0-48.4-22.5-48.4-50.3c5.7,8.9,5.6-2.4,6.3-7.6
	C62.5,54.3,73.2,32.5,101.3,42.3z"/>
<path fill-rule="evenodd" clip-rule="evenodd" fill="#E28E66" d="M114.2,109.4c-7.5,17.5-20.2,17.6-27.7,0c6.1-4,12.4,1.1,14.1,1.1
	C102.3,110.5,107.6,105.1,114.2,109.4z"/>
<g>
	<g>
		<ellipse fill-rule="evenodd" clip-rule="evenodd" fill="#343434" cx="82.7" cy="78.6" rx="4.5" ry="7.5"/>
		<circle fill-rule="evenodd" clip-rule="evenodd" fill="#FFFFFF" cx="83.4" cy="74.8" r="2.6"/>
	</g>
	<g>
		<ellipse fill-rule="evenodd" clip-rule="evenodd" fill="#343434" cx="117.9" cy="78.6" rx="4.5" ry="7.5"/>
		<circle fill-rule="evenodd" clip-rule="evenodd" fill="#FFFFFF" cx="118.6" cy="74.8" r="2.6"/>
	</g>
</g>
<g>
	<path fill="#E8603B" d="M128.7,62.8c-3.5-0.2-9.6-3.1-14.9,2.1c-1.8,1.6-3.9-0.6-1.9-2.2C119.7,56.3,134.2,63.1,128.7,62.8z"/>
	<path fill="#E8603B" d="M71.9,62.8c3.5-0.2,9.6-3.1,14.9,2.1c1.8,1.6,3.9-0.6,1.9-2.2C81,56.3,66.5,63.1,71.9,62.8z"/>
</g>
<path fill-rule="evenodd" clip-rule="evenodd" fill="#05AA9F" d="M156.1,168.2c-9.7-7.9-27.6-14-37-17.6
	c-1.8,6.6-9.5,11.6-18.8,11.6c-9.3,0-17-5-18.8-11.6c-9.5,3.6-27.4,9.7-37,17.6c15.8,11,35.1,17.4,55.8,17.4
	C121.1,185.6,140.3,179.2,156.1,168.2z"/>
<g>
	<path fill-rule="evenodd" clip-rule="evenodd" fill="#60C0C1" d="M100.3,161.2c-8.3,0-14.7-4.8-16.2-12.1
		c-3.4,1.6-8.5,2.8-13.3,5.3c-0.1,0.4-0.1,0.8-0.1,1.3c0,6.8,6.6,13.5,14.8,15.1C93.7,172.3,100.3,168.1,100.3,161.2L100.3,161.2z"
		/>
	<path fill-rule="evenodd" clip-rule="evenodd" fill="#60C0C1" d="M129.8,154.4c-4.8-2.4-9.8-4.6-13.2-6.1c-1.6,7.3-8,13-16.4,13
		l0,0.1c0,6.8,6.6,11,14.8,9.4c8.2-1.6,14.8-8.3,14.8-15.1C129.9,155.2,129.9,154.8,129.8,154.4z"/>
</g>
<path fill-rule="evenodd" clip-rule="evenodd" fill="#E8603B" d="M101.7,42c-14.3-0.4-42.4,11.4-40.1,75.4
	C51.7,84.5,68.7,28.6,101.7,42z"/>
<path fill-rule="evenodd" clip-rule="evenodd" fill="#E8603B" d="M99.2,42c14.3-0.4,42.4,11.4,40.1,75.4
	C149.2,84.5,132.2,28.6,99.2,42z"/>
<path fill="#C79C6D" d="M106,96c1.5-1,3.7,0,2.2,1c-4.5,3.1-11.9,3.1-16.4,0c-1.5-1,0.5-1.8,2.2-1C97.5,97.7,102.9,97.6,106,96z"/>
<g>
	
		<ellipse transform="matrix(0.3135 -0.9496 0.9496 0.3135 22.5129 206.0924)" fill-rule="evenodd" clip-rule="evenodd" fill="#FAD3A8" cx="153.8" cy="87.5" rx="13.8" ry="7.1"/>
	
		<ellipse transform="matrix(-0.3135 -0.9496 0.9496 -0.3135 -20.5192 160.1178)" fill-rule="evenodd" clip-rule="evenodd" fill="#FAD3A8" cx="47.6" cy="87.5" rx="13.8" ry="7.1"/>
</g>
</svg>
